<svg width="493" height="489" viewBox="0 0 493 489" fill="none" xmlns="http://www.w3.org/2000/svg">
<rect width="493" height="489" rx="50" fill="black"/>
<path d="M168.097 113.862V374.109" stroke="white" stroke-width="50"/>
<path d="M318.234 375.696C332.041 375.751 343.279 364.604 343.334 350.797C343.39 336.99 332.242 325.752 318.435 325.696L318.234 375.696ZM144.9 375L318.234 375.696L318.435 325.696L145.1 325L144.9 375Z" fill="white"/>
<path d="M168.097 242.262L341.431 242.969" stroke="white" stroke-width="50"/>
<path d="M340.446 113H365.446V88H340.446V113ZM315.446 242.262C315.446 256.069 326.638 267.262 340.446 267.262C354.253 267.262 365.446 256.069 365.446 242.262H315.446ZM168.097 138H340.446V88H168.097V138ZM315.446 113V242.262H365.446V113H315.446Z" fill="white"/>
</svg>
